<?xml version="1.0" encoding="iso-8859-1"?>
<!-- Generator: Adobe Illustrator 19.0.0, SVG Export Plug-In . SVG Version: 6.00 Build 0)  -->
<svg version="1.1" id="Capa_1" xmlns="http://www.w3.org/2000/svg" xmlns:xlink="http://www.w3.org/1999/xlink" x="0px" y="0px"
	 viewBox="0 0 512 512" style="enable-background:new 0 0 512 512;" xml:space="preserve">
<g>
	<g>
		<path d="M474.32,153.519c-6.892-4.594-16.206-2.732-20.801,4.161l-42.987,64.481l-13.463-40.391
			c-6.135-18.404-23.291-30.77-42.691-30.77H331V90h135c8.284,0,15-6.716,15-15s-6.716-15-15-15H331V30h135c8.284,0,15-6.716,15-15
			s-6.716-15-15-15c-15.235,0-321.083,0-330,0c-8.284,0-15,6.716-15,15s6.716,15,15,15h45v30h-45c-8.284,0-15,6.716-15,15
			s6.716,15,15,15h45v61h-23.377c-19.4,0-36.556,12.365-42.691,30.77l-13.463,40.391L58.482,157.68
			c-4.596-6.894-13.909-8.755-20.801-4.161c-6.893,4.596-8.756,13.909-4.161,20.801l58.033,87.05l26.279,211.211
			C120.641,495.054,139.836,512,162.484,512h187.033c22.647,0,41.843-16.946,44.653-39.427l26.278-211.203l58.033-87.05
			C483.076,167.427,481.213,158.114,474.32,153.519z M271,30h30v121h-30V30z M211,30h30v121h-30V30z M143.393,191.257
			c2.045-6.135,7.763-10.257,14.23-10.257h196.755c6.467,0,12.185,4.122,14.23,10.256L385.188,241H126.813L143.393,191.257z
			 M134.18,360.9h48.33c-0.988,4.848-1.509,9.964-1.509,15.1c0,5.136,0.521,10.152,1.509,15h-44.597L134.18,360.9z M364.401,468.861
			c-0.936,7.491-7.335,13.139-14.884,13.139H162.484c-7.549,0-13.948-5.648-14.883-13.131L141.646,421h54.396
			c13.697,18.204,35.475,30,59.959,30s46.262-11.796,59.959-30h54.396L364.401,468.861z M211,376c0-24.813,20.187-45,45-45
			s45,20.187,45,45s-20.187,45-45,45S211,400.813,211,376z M374.089,391h-44.597c0.988-4.848,1.509-9.864,1.509-15
			s-0.521-10.152-1.509-15h48.33L374.089,391z M381.554,331H315.96c-13.697-18.204-35.475-30-59.959-30s-46.262,11.796-59.959,30
			h-65.594l-7.465-60h266.036L381.554,331z"/>
	</g>
</g>
<g>
</g>
<g>
</g>
<g>
</g>
<g>
</g>
<g>
</g>
<g>
</g>
<g>
</g>
<g>
</g>
<g>
</g>
<g>
</g>
<g>
</g>
<g>
</g>
<g>
</g>
<g>
</g>
<g>
</g>
</svg>
