<?xml version="1.0"?>
<svg xmlns="http://www.w3.org/2000/svg" viewBox="0 0 64 64" width="512" height="512"><g id="Layer_10" data-name="Layer 10"><rect x="42" y="27" width="2" height="2"/><path d="M63,6a3,3,0,0,0-3-3H30.82A3,3,0,0,0,28,1a3,3,0,0,0-2,.78,3,3,0,0,0-4,0A3,3,0,0,0,20,1a3,3,0,0,0-2.82,2H14a3,3,0,0,0-3,3,3,3,0,0,0,.78,2A3,3,0,0,0,11,10a3,3,0,0,0,3,3h3V36A14,14,0,0,0,3.05,49H2a1,1,0,0,0-1,1,9,9,0,0,0,9,9h3v3a1,1,0,0,0,1,1H49a1,1,0,0,0,1-1V59h4a9,9,0,0,0,9-9,1,1,0,0,0-1-1H61a14,14,0,0,0-5-9.76,11.32,11.32,0,0,0,1-4.72,10.59,10.59,0,0,0-2.41-6.73,10.33,10.33,0,0,0-8-3.79H36a1,1,0,0,1,0-2h4V20H36a3,3,0,0,0,0,6h2v.87a5.81,5.81,0,0,0,2.89,5.07L41,32v2h2V32.68a5.61,5.61,0,0,0,2.12-.11V34h2V31.79a2.47,2.47,0,0,1,2.11.3,2.59,2.59,0,0,1,1.08,1.64,7.6,7.6,0,0,1,0,2.69A14.21,14.21,0,0,0,47,36a13.92,13.92,0,0,0-7.51,2.19A13.9,13.9,0,0,0,32,36c-.34,0-.67,0-1,0V13H60a3,3,0,0,0,3-3,3,3,0,0,0-.78-2A3,3,0,0,0,63,6ZM61,6a1,1,0,0,1-1,1H31V5H60A1,1,0,0,1,61,6ZM24,3a1,1,0,0,1,1,1V37.89l-.49.3A14.86,14.86,0,0,0,23,37.35V4A1,1,0,0,1,24,3ZM14,5h3V7H14a1,1,0,0,1,0-2Zm0,6a1,1,0,0,1,0-2h3v2Zm5-7a1,1,0,0,1,2,0V36.59a12.3,12.3,0,0,0-2-.44ZM17,38a11.93,11.93,0,0,1,5.78,1.49A14,14,0,0,0,21.3,41,10,10,0,0,0,7.05,49h-2A12,12,0,0,1,17,38ZM13.14,49A4,4,0,0,1,17,46a4.11,4.11,0,0,1,1.51.3,14.11,14.11,0,0,0-.46,2.7Zm6-4.58A5.94,5.94,0,0,0,17,44a6,6,0,0,0-5.91,5h-2A8,8,0,0,1,17,42a8.09,8.09,0,0,1,3.12.63A13.32,13.32,0,0,0,19.17,44.42ZM48,61H15V59H48Zm6-4H10a7,7,0,0,1-6.93-6H60.93A7,7,0,0,1,54,57ZM37.91,49a6,6,0,0,0-11.82,0h-2a8,8,0,0,1,15.86,0Zm-2,0H28.14a4,4,0,0,1,7.72,0Zm17,0A6,6,0,0,0,47,44a5.94,5.94,0,0,0-2.17.42,13.32,13.32,0,0,0-.95-1.79A8.09,8.09,0,0,1,47,42a8,8,0,0,1,7.93,7Zm-7.42-2.69A3.92,3.92,0,0,1,47,46a4,4,0,0,1,3.86,3H46A13.87,13.87,0,0,0,45.49,46.31ZM41.9,30.21A3.81,3.81,0,0,1,40,26.87V26h6.59a8.24,8.24,0,0,1,1.94.23l-1.15,3.46a4.47,4.47,0,0,0-1.75.55A3.71,3.71,0,0,1,41.9,30.21Zm8.45.23a4,4,0,0,0-1-.48l1-3a8.27,8.27,0,0,1,2.64,2.12,8.81,8.81,0,0,1,.9,1.35l-2.42,1.21A4.57,4.57,0,0,0,50.35,30.44Zm1.94,3,2.41-1.2a8.48,8.48,0,0,1,.3,2.25,9.37,9.37,0,0,1-.72,3.54,15.35,15.35,0,0,0-2-1A9.68,9.68,0,0,0,52.29,33.47ZM47,38A12,12,0,0,1,59,49H57A10,10,0,0,0,42.7,41a14,14,0,0,0-1.48-1.5A11.93,11.93,0,0,1,47,38ZM44,49H42a10,10,0,0,0-19.9,0h-2A12,12,0,0,1,44,49ZM27,36.94V4a1,1,0,0,1,2,0V36.33A13.6,13.6,0,0,0,27,36.94ZM60,11H31V9H60a1,1,0,0,1,0,2Z"/><path d="M7,35.07a8.07,8.07,0,0,0,5.71-13.78,1,1,0,0,0-1.42,0l-10,10a1,1,0,0,0,0,1.42A8.07,8.07,0,0,0,7,35.07ZM9.41,28H13a6.08,6.08,0,0,1-1,2.52Zm1.11,3.94A6,6,0,0,1,8,33V29.41Zm1.42-8.47A5.91,5.91,0,0,1,13,26H9.41ZM6,29.41V33a5.91,5.91,0,0,1-2.53-1Z"/><path d="M62,17h-.17A7.82,7.82,0,0,0,54,24.83V25a1,1,0,0,0,1,1h.17A7.82,7.82,0,0,0,63,18.17V18A1,1,0,0,0,62,17Zm-2.71,5.29a5.71,5.71,0,0,1-3.22,1.64,5.84,5.84,0,0,1,4.86-4.86A5.71,5.71,0,0,1,59.29,22.29Z"/><path d="M45,14a1,1,0,0,0-1,1v.17A7.82,7.82,0,0,0,51.83,23H52a1,1,0,0,0,1-1v-.17A7.82,7.82,0,0,0,45.17,14Zm4.29,3.71a5.71,5.71,0,0,1,1.64,3.22,5.84,5.84,0,0,1-4.86-4.86A5.71,5.71,0,0,1,49.29,17.71Z"/></g></svg>
