<?xml version="1.0"?>
<svg xmlns="http://www.w3.org/2000/svg" viewBox="0 0 512 512" width="512" height="512"><g id="Out_line" data-name="Out line"><path d="M472,448H439.13831A55.96314,55.96314,0,0,0,400,352H368a55.92675,55.92675,0,0,0-16.02734,2.33667A55.8029,55.8029,0,0,0,335.98926,352h-32a55.92816,55.92816,0,0,0-16.022,2.33514A55.80407,55.80407,0,0,0,271.98926,352h-32A55.96314,55.96314,0,0,0,200.851,448H163.695A31.79288,31.79288,0,0,0,168,432V360a7.99977,7.99977,0,0,0-8-8H64a7.99977,7.99977,0,0,0-8,8v72a31.79288,31.79288,0,0,0,4.305,16H40a24,24,0,0,0,0,48H472a24,24,0,0,0,0-48Zm-72-80a40,40,0,0,1,0,80H375.12756a56.17038,56.17038,0,0,0,12.85511-19.23865A23.99516,23.99516,0,1,0,400,384H386.575a56.26012,56.26012,0,0,0-11.44739-16Zm-8,40v-8h8a8,8,0,1,1-8,8Zm-56.01074-40a40,40,0,1,1,0,80h-24.8617a56.171,56.171,0,0,0,12.85315-19.23364A23.99513,23.99513,0,1,0,335.98926,384H322.575a56.26012,56.26012,0,0,0-11.44739-16Zm-8,40v-8h8a8,8,0,1,1-8,8Zm-128,0a40.04521,40.04521,0,0,1,40-40h32a40,40,0,1,1,0,80h-16a24.00087,24.00087,0,0,1-8-46.62891V408a24,24,0,1,0,24-24h-16a39.98651,39.98651,0,0,0-35.12335,59.12335A40.03261,40.03261,0,0,1,199.98926,408Zm64,0v-8h8a8,8,0,1,1-8,8ZM72,432V368h80v64a16.01833,16.01833,0,0,1-16,16H88A16.01833,16.01833,0,0,1,72,432Zm400,48H40a8,8,0,0,1,0-16H472a8,8,0,0,1,0,16Z"/><path d="M27.85205,114.77637,15.73389,125.22363l186.207,216a8.001,8.001,0,0,0,5.76318,2.771q.14868.00513.29639.00537a8.00011,8.00011,0,0,0,5.65625-2.34326l24-24a7.99976,7.99976,0,0,0,.44336-10.83252l-7.90271-9.31391c.79706.06855,1.59552.12964,2.39782.163.75586.03174,1.50782.04687,2.26124.04687a54.845,54.845,0,0,0,54.81689-57.125c-.03394-.81719-.09546-1.63049-.166-2.44226l9.30127,7.93348a7.99914,7.99914,0,0,0,10.84815-.42969l24-24a7.999,7.999,0,0,0-.41748-11.70215l-221.53858-192L101.22217,30.04541l215.0459,186.37305-12.69922,12.69922L55.9502,17.91357,45.56738,30.08643,197.46393,159.64532A50.99131,50.99131,0,0,0,151.698,204.99323L27.67578,58.82422,15.47559,69.17578l205.65527,242.3794L208.43457,324.252Zm149.80469,70.88037a35.24251,35.24251,0,0,1,47.4043-1.97168l.24621-.291,34.78992,29.67371-.12988.15344a38.84555,38.84555,0,1,1-54.7461,54.7461l-.05273.04461-14.75208-17.38629.0763-.06457a22.93531,22.93531,0,0,1,29.80664-34.17383l-5.95606,5.956a24.9704,24.9704,0,1,0,35.31348,0L235.53027,208.2168a38.977,38.977,0,0,0-55.06054,0,38.51163,38.51163,0,0,0-9.84143,16.8518A35.28826,35.28826,0,0,1,177.65674,185.65674ZM223.0293,240a8.91226,8.91226,0,0,1,2.62744-6.34326L232,227.31348l6.34326,6.34326A8.97072,8.97072,0,1,1,223.0293,240Z"/></g></svg>
