<svg xmlns="http://www.w3.org/2000/svg" style="display: none;"><symbol id="thai-food" viewBox="0 0 512 512"><title>thai-food</title><path d="M474.32,153.519c-6.892-4.594-16.206-2.732-20.801,4.161l-42.987,64.481l-13.463-40.391 c-6.135-18.404-23.291-30.77-42.691-30.77H331V90h135c8.284,0,15-6.716,15-15s-6.716-15-15-15H331V30h135c8.284,0,15-6.716,15-15 s-6.716-15-15-15c-15.235,0-321.083,0-330,0c-8.284,0-15,6.716-15,15s6.716,15,15,15h45v30h-45c-8.284,0-15,6.716-15,15 s6.716,15,15,15h45v61h-23.377c-19.4,0-36.556,12.365-42.691,30.77l-13.463,40.391L58.482,157.68 c-4.596-6.894-13.909-8.755-20.801-4.161c-6.893,4.596-8.756,13.909-4.161,20.801l58.033,87.05l26.279,211.211 C120.641,495.054,139.836,512,162.484,512h187.033c22.647,0,41.843-16.946,44.653-39.427l26.278-211.203l58.033-87.05 C483.076,167.427,481.213,158.114,474.32,153.519z M271,30h30v121h-30V30z M211,30h30v121h-30V30z M143.393,191.257 c2.045-6.135,7.763-10.257,14.23-10.257h196.755c6.467,0,12.185,4.122,14.23,10.256L385.188,241H126.813L143.393,191.257z M134.18,360.9h48.33c-0.988,4.848-1.509,9.964-1.509,15.1c0,5.136,0.521,10.152,1.509,15h-44.597L134.18,360.9z M364.401,468.861 c-0.936,7.491-7.335,13.139-14.884,13.139H162.484c-7.549,0-13.948-5.648-14.883-13.131L141.646,421h54.396 c13.697,18.204,35.475,30,59.959,30s46.262-11.796,59.959-30h54.396L364.401,468.861z M211,376c0-24.813,20.187-45,45-45 s45,20.187,45,45s-20.187,45-45,45S211,400.813,211,376z M374.089,391h-44.597c0.988-4.848,1.509-9.864,1.509-15 s-0.521-10.152-1.509-15h48.33L374.089,391z M381.554,331H315.96c-13.697-18.204-35.475-30-59.959-30s-46.262,11.796-59.959,30 h-65.594l-7.465-60h266.036L381.554,331z"/></symbol><symbol id="noodles" viewBox="0 0 64 64"><title>noodles</title><rect x="42" y="27" width="2" height="2"/><path d="M63,6a3,3,0,0,0-3-3H30.82A3,3,0,0,0,28,1a3,3,0,0,0-2,.78,3,3,0,0,0-4,0A3,3,0,0,0,20,1a3,3,0,0,0-2.82,2H14a3,3,0,0,0-3,3,3,3,0,0,0,.78,2A3,3,0,0,0,11,10a3,3,0,0,0,3,3h3V36A14,14,0,0,0,3.05,49H2a1,1,0,0,0-1,1,9,9,0,0,0,9,9h3v3a1,1,0,0,0,1,1H49a1,1,0,0,0,1-1V59h4a9,9,0,0,0,9-9,1,1,0,0,0-1-1H61a14,14,0,0,0-5-9.76,11.32,11.32,0,0,0,1-4.72,10.59,10.59,0,0,0-2.41-6.73,10.33,10.33,0,0,0-8-3.79H36a1,1,0,0,1,0-2h4V20H36a3,3,0,0,0,0,6h2v.87a5.81,5.81,0,0,0,2.89,5.07L41,32v2h2V32.68a5.61,5.61,0,0,0,2.12-.11V34h2V31.79a2.47,2.47,0,0,1,2.11.3,2.59,2.59,0,0,1,1.08,1.64,7.6,7.6,0,0,1,0,2.69A14.21,14.21,0,0,0,47,36a13.92,13.92,0,0,0-7.51,2.19A13.9,13.9,0,0,0,32,36c-.34,0-.67,0-1,0V13H60a3,3,0,0,0,3-3,3,3,0,0,0-.78-2A3,3,0,0,0,63,6ZM61,6a1,1,0,0,1-1,1H31V5H60A1,1,0,0,1,61,6ZM24,3a1,1,0,0,1,1,1V37.89l-.49.3A14.86,14.86,0,0,0,23,37.35V4A1,1,0,0,1,24,3ZM14,5h3V7H14a1,1,0,0,1,0-2Zm0,6a1,1,0,0,1,0-2h3v2Zm5-7a1,1,0,0,1,2,0V36.59a12.3,12.3,0,0,0-2-.44ZM17,38a11.93,11.93,0,0,1,5.78,1.49A14,14,0,0,0,21.3,41,10,10,0,0,0,7.05,49h-2A12,12,0,0,1,17,38ZM13.14,49A4,4,0,0,1,17,46a4.11,4.11,0,0,1,1.51.3,14.11,14.11,0,0,0-.46,2.7Zm6-4.58A5.94,5.94,0,0,0,17,44a6,6,0,0,0-5.91,5h-2A8,8,0,0,1,17,42a8.09,8.09,0,0,1,3.12.63A13.32,13.32,0,0,0,19.17,44.42ZM48,61H15V59H48Zm6-4H10a7,7,0,0,1-6.93-6H60.93A7,7,0,0,1,54,57ZM37.91,49a6,6,0,0,0-11.82,0h-2a8,8,0,0,1,15.86,0Zm-2,0H28.14a4,4,0,0,1,7.72,0Zm17,0A6,6,0,0,0,47,44a5.94,5.94,0,0,0-2.17.42,13.32,13.32,0,0,0-.95-1.79A8.09,8.09,0,0,1,47,42a8,8,0,0,1,7.93,7Zm-7.42-2.69A3.92,3.92,0,0,1,47,46a4,4,0,0,1,3.86,3H46A13.87,13.87,0,0,0,45.49,46.31ZM41.9,30.21A3.81,3.81,0,0,1,40,26.87V26h6.59a8.24,8.24,0,0,1,1.94.23l-1.15,3.46a4.47,4.47,0,0,0-1.75.55A3.71,3.71,0,0,1,41.9,30.21Zm8.45.23a4,4,0,0,0-1-.48l1-3a8.27,8.27,0,0,1,2.64,2.12,8.81,8.81,0,0,1,.9,1.35l-2.42,1.21A4.57,4.57,0,0,0,50.35,30.44Zm1.94,3,2.41-1.2a8.48,8.48,0,0,1,.3,2.25,9.37,9.37,0,0,1-.72,3.54,15.35,15.35,0,0,0-2-1A9.68,9.68,0,0,0,52.29,33.47ZM47,38A12,12,0,0,1,59,49H57A10,10,0,0,0,42.7,41a14,14,0,0,0-1.48-1.5A11.93,11.93,0,0,1,47,38ZM44,49H42a10,10,0,0,0-19.9,0h-2A12,12,0,0,1,44,49ZM27,36.94V4a1,1,0,0,1,2,0V36.33A13.6,13.6,0,0,0,27,36.94ZM60,11H31V9H60a1,1,0,0,1,0,2Z"/><path d="M7,35.07a8.07,8.07,0,0,0,5.71-13.78,1,1,0,0,0-1.42,0l-10,10a1,1,0,0,0,0,1.42A8.07,8.07,0,0,0,7,35.07ZM9.41,28H13a6.08,6.08,0,0,1-1,2.52Zm1.11,3.94A6,6,0,0,1,8,33V29.41Zm1.42-8.47A5.91,5.91,0,0,1,13,26H9.41ZM6,29.41V33a5.91,5.91,0,0,1-2.53-1Z"/><path d="M62,17h-.17A7.82,7.82,0,0,0,54,24.83V25a1,1,0,0,0,1,1h.17A7.82,7.82,0,0,0,63,18.17V18A1,1,0,0,0,62,17Zm-2.71,5.29a5.71,5.71,0,0,1-3.22,1.64,5.84,5.84,0,0,1,4.86-4.86A5.71,5.71,0,0,1,59.29,22.29Z"/><path d="M45,14a1,1,0,0,0-1,1v.17A7.82,7.82,0,0,0,51.83,23H52a1,1,0,0,0,1-1v-.17A7.82,7.82,0,0,0,45.17,14Zm4.29,3.71a5.71,5.71,0,0,1,1.64,3.22,5.84,5.84,0,0,1-4.86-4.86A5.71,5.71,0,0,1,49.29,17.71Z"/></symbol><symbol id="sushi" viewBox="0 0 512 512"><title>sushi</title><path d="M472,448H439.13831A55.96314,55.96314,0,0,0,400,352H368a55.92675,55.92675,0,0,0-16.02734,2.33667A55.8029,55.8029,0,0,0,335.98926,352h-32a55.92816,55.92816,0,0,0-16.022,2.33514A55.80407,55.80407,0,0,0,271.98926,352h-32A55.96314,55.96314,0,0,0,200.851,448H163.695A31.79288,31.79288,0,0,0,168,432V360a7.99977,7.99977,0,0,0-8-8H64a7.99977,7.99977,0,0,0-8,8v72a31.79288,31.79288,0,0,0,4.305,16H40a24,24,0,0,0,0,48H472a24,24,0,0,0,0-48Zm-72-80a40,40,0,0,1,0,80H375.12756a56.17038,56.17038,0,0,0,12.85511-19.23865A23.99516,23.99516,0,1,0,400,384H386.575a56.26012,56.26012,0,0,0-11.44739-16Zm-8,40v-8h8a8,8,0,1,1-8,8Zm-56.01074-40a40,40,0,1,1,0,80h-24.8617a56.171,56.171,0,0,0,12.85315-19.23364A23.99513,23.99513,0,1,0,335.98926,384H322.575a56.26012,56.26012,0,0,0-11.44739-16Zm-8,40v-8h8a8,8,0,1,1-8,8Zm-128,0a40.04521,40.04521,0,0,1,40-40h32a40,40,0,1,1,0,80h-16a24.00087,24.00087,0,0,1-8-46.62891V408a24,24,0,1,0,24-24h-16a39.98651,39.98651,0,0,0-35.12335,59.12335A40.03261,40.03261,0,0,1,199.98926,408Zm64,0v-8h8a8,8,0,1,1-8,8ZM72,432V368h80v64a16.01833,16.01833,0,0,1-16,16H88A16.01833,16.01833,0,0,1,72,432Zm400,48H40a8,8,0,0,1,0-16H472a8,8,0,0,1,0,16Z"/><path d="M27.85205,114.77637,15.73389,125.22363l186.207,216a8.001,8.001,0,0,0,5.76318,2.771q.14868.00513.29639.00537a8.00011,8.00011,0,0,0,5.65625-2.34326l24-24a7.99976,7.99976,0,0,0,.44336-10.83252l-7.90271-9.31391c.79706.06855,1.59552.12964,2.39782.163.75586.03174,1.50782.04687,2.26124.04687a54.845,54.845,0,0,0,54.81689-57.125c-.03394-.81719-.09546-1.63049-.166-2.44226l9.30127,7.93348a7.99914,7.99914,0,0,0,10.84815-.42969l24-24a7.999,7.999,0,0,0-.41748-11.70215l-221.53858-192L101.22217,30.04541l215.0459,186.37305-12.69922,12.69922L55.9502,17.91357,45.56738,30.08643,197.46393,159.64532A50.99131,50.99131,0,0,0,151.698,204.99323L27.67578,58.82422,15.47559,69.17578l205.65527,242.3794L208.43457,324.252Zm149.80469,70.88037a35.24251,35.24251,0,0,1,47.4043-1.97168l.24621-.291,34.78992,29.67371-.12988.15344a38.84555,38.84555,0,1,1-54.7461,54.7461l-.05273.04461-14.75208-17.38629.0763-.06457a22.93531,22.93531,0,0,1,29.80664-34.17383l-5.95606,5.956a24.9704,24.9704,0,1,0,35.31348,0L235.53027,208.2168a38.977,38.977,0,0,0-55.06054,0,38.51163,38.51163,0,0,0-9.84143,16.8518A35.28826,35.28826,0,0,1,177.65674,185.65674ZM223.0293,240a8.91226,8.91226,0,0,1,2.62744-6.34326L232,227.31348l6.34326,6.34326A8.97072,8.97072,0,1,1,223.0293,240Z"/></symbol><symbol id="muffin" viewBox="0 0 480.005 480.005"><title>muffin</title><g> <g> <rect x="112.002" y="208.005" width="16" height="16"/> </g> </g><g> <g> <rect x="152.002" y="192.005" width="16" height="16"/> </g> </g><g> <g> <rect x="200.002" y="208.005" width="16" height="16"/> </g> </g><g> <g> <rect x="248.002" y="192.005" width="16" height="16"/> </g> </g><g> <g> <rect x="304.002" y="192.005" width="16" height="16"/> </g> </g><g> <g> <rect x="344.002" y="208.005" width="16" height="16"/> </g> </g><g> <g> <rect x="248.002" y="48.005" width="16" height="16"/> </g> </g><g> <g> <rect x="184.002" y="112.005" width="16" height="16"/> </g> </g><g> <g> <rect x="224.002" y="128.005" width="16" height="16"/> </g> </g><g> <g> <rect x="296.002" y="112.005" width="16" height="16"/> </g> </g><g> <g> <path d="M403.514,240.181c17.819-19.562,16.406-49.865-3.156-67.684c-8.847-8.059-20.389-12.515-32.356-12.492h-20.32 c17.717-19.66,16.142-49.96-3.518-67.678c-8.823-7.951-20.285-12.343-32.162-12.322h-0.552c-4.056-31.967-31.225-55.946-63.448-56 h-10.968c-5.987,0.189-11.305-3.799-12.8-9.6c-0.316-1.584-0.316-3.216,0-4.8c0.413-2.382-0.262-4.824-1.84-6.656 c-1.6-1.866-3.934-2.941-6.392-2.944c-20.547-0.286-38.924,12.736-45.464,32.216c-5.044,14.874-2.575,31.27,6.624,44 c0.974,1.319,2.015,2.588,3.12,3.8h-12.28c-26.465-0.045-47.957,21.372-48.002,47.838c-0.02,11.877,4.371,23.339,12.322,32.162 h-20.32c-26.461-0.051-47.953,21.359-48.004,47.82c-0.023,11.967,4.433,23.509,12.492,32.356 c-25.055,1.838-44.455,22.685-44.488,47.808c-0.004,15.757,7.821,30.487,20.88,39.304l51.568,147.336 c1.122,3.21,4.151,5.36,7.552,5.36h256c3.401,0,6.43-2.15,7.552-5.36l51.568-147.336c13.059-8.817,20.884-23.547,20.88-39.304 C447.978,262.876,428.576,242.019,403.514,240.181z M185.762,37.205c3.544-10.216,12.126-17.868,22.68-20.224 c0,0.16,0.056,0.32,0.08,0.48c2.918,13.348,14.85,22.783,28.512,22.544h10.968c23.413,0.029,43.401,16.92,47.336,40h-79.336 c-10.245-0.021-19.866-4.923-25.904-13.2C183.957,58.218,182.342,47.192,185.762,37.205z M168.002,96.005h144 c17.673,0,32,14.327,32,32s-14.327,32-32,32h-144c-17.673,0-32-14.327-32-32S150.329,96.005,168.002,96.005z M112.002,176.005h256 c17.673,0,32,14.327,32,32s-14.327,32-32,32h-256c-17.673,0-32-14.327-32-32S94.329,176.005,112.002,176.005z M117.682,464.005 L65.09,313.741c4.526-4.432,10.481-7.109,16.8-7.552c7.723-0.508,15.293,2.314,20.8,7.752l1.856,1.856l22.168,148.208H117.682z M142.898,464.005l-22.4-149.2l4.616-4.616c10.432-10.401,27.312-10.401,37.744,0l5.304,5.288l7.424,148.528H142.898z M232.002,464.005h-40.384l-7.448-148.856l4.96-4.96c10.432-10.401,27.312-10.401,37.744,0l5.128,5.128V464.005z M288.386,464.005 h-40.384V315.317l5.128-5.128c10.432-10.401,27.312-10.401,37.744,0l4.96,4.96L288.386,464.005z M304.418,464.005l7.424-148.528 l5.288-5.288c10.432-10.401,27.312-10.401,37.744,0l4.616,4.616l-22.384,149.2H304.418z M362.322,464.005h-9.032l22.232-148.208 l1.856-1.856c10.34-10.35,27.087-10.439,37.536-0.2L362.322,464.005z M427.698,303.949l-0.096-0.088 c-1.654-1.768-3.456-3.392-5.384-4.856c-0.304-0.232-0.6-0.472-0.904-0.696c-1.885-1.363-3.878-2.57-5.96-3.608 c-0.376-0.192-0.752-0.368-1.144-0.552c-2.124-0.981-4.327-1.784-6.584-2.4c-0.32-0.096-0.648-0.152-0.976-0.232 c-2.418-0.628-4.886-1.043-7.376-1.24c-1.016-0.072-2.024-0.104-3.032-0.104c-1.008,0-1.928,0.192-2.896,0.256 c-1.264,0.088-2.52,0.152-3.768,0.344c-1.4,0.224-2.752,0.592-4.12,0.952c-1.224,0.32-2.448,0.584-3.64,1.008 c-1.495,0.58-2.956,1.245-4.376,1.992c-0.944,0.464-1.92,0.8-2.824,1.36c-2.328,1.36-4.522,2.938-6.552,4.712l-1.88-1.88 c-16.683-16.639-43.685-16.639-60.368,0l-1.816,1.776l-1.816-1.816c-16.683-16.639-43.685-16.639-60.368,0l-1.816,1.816 l-1.816-1.816c-16.683-16.639-43.685-16.639-60.368,0l-1.816,1.816l-1.816-1.816c-16.683-16.639-43.685-16.639-60.368,0 l-1.88,1.88c-10.5-9.352-24.98-12.835-38.584-9.28c-0.328,0.08-0.656,0.136-0.976,0.232c-2.257,0.616-4.46,1.419-6.584,2.4 c-0.392,0.184-0.8,0.36-1.144,0.552c-2.082,1.038-4.075,2.245-5.96,3.608c-0.304,0.224-0.6,0.464-0.904,0.696 c-1.928,1.464-3.729,3.088-5.384,4.856l-0.096,0.088c-2.825-4.824-4.311-10.314-4.304-15.904c0-17.673,14.327-32,32-32h320 c17.673,0,32,14.327,32,32C432.016,293.608,430.53,299.113,427.698,303.949z"/> </g> </g></symbol></svg>